<svg width="420" height="300" viewBox="0 0 420 300" fill="none" xmlns="http://www.w3.org/2000/svg">
  <rect width="420" height="300" rx="14" fill="#F8FAFC"/>
  <rect x="22" y="18" width="376" height="264" rx="10" fill="#FFFFFF" stroke="#CBD5E1"/>
  <rect x="22" y="18" width="376" height="42" rx="10" fill="#0F172A"/>
  <rect x="42" y="30" width="130" height="8" rx="4" fill="#E2E8F0"/>
  <rect x="42" y="43" width="84" height="5" rx="2.5" fill="#94A3B8"/>
  <circle cx="365" cy="39" r="15" fill="#E2E8F0"/>

  <rect x="42" y="76" width="218" height="8" rx="4" fill="#0F172A"/>
  <rect x="42" y="90" width="202" height="5" rx="2.5" fill="#64748B"/>
  <rect x="42" y="100" width="184" height="5" rx="2.5" fill="#64748B"/>

  <rect x="42" y="122" width="218" height="8" rx="4" fill="#0F172A"/>
  <rect x="42" y="136" width="170" height="5" rx="2.5" fill="#64748B"/>
  <rect x="42" y="146" width="198" height="5" rx="2.5" fill="#64748B"/>
  <rect x="42" y="156" width="156" height="5" rx="2.5" fill="#64748B"/>

  <rect x="42" y="182" width="218" height="8" rx="4" fill="#0F172A"/>
  <rect x="42" y="196" width="140" height="5" rx="2.5" fill="#64748B"/>
  <rect x="42" y="206" width="176" height="5" rx="2.5" fill="#64748B"/>

  <line x1="280" y1="74" x2="280" y2="250" stroke="#E2E8F0" stroke-width="2"/>

  <rect x="298" y="76" width="82" height="8" rx="4" fill="#0F172A"/>
  <rect x="298" y="91" width="74" height="5" rx="2.5" fill="#64748B"/>
  <rect x="298" y="101" width="66" height="5" rx="2.5" fill="#64748B"/>

  <rect x="298" y="124" width="82" height="8" rx="4" fill="#0F172A"/>
  <rect x="298" y="139" width="58" height="5" rx="2.5" fill="#64748B"/>
  <rect x="298" y="149" width="72" height="5" rx="2.5" fill="#64748B"/>

  <rect x="298" y="172" width="82" height="8" rx="4" fill="#0F172A"/>
  <rect x="298" y="187" width="64" height="5" rx="2.5" fill="#64748B"/>
  <rect x="298" y="197" width="70" height="5" rx="2.5" fill="#64748B"/>

  <rect x="42" y="258" width="338" height="3" rx="1.5" fill="#334155"/>
</svg>
