<svg width="420" height="594" viewBox="0 0 420 594" fill="none" xmlns="http://www.w3.org/2000/svg">
  <rect width="420" height="594" rx="14" fill="#FFFFFF"/>
  <rect x="22" y="22" width="376" height="88" rx="10" fill="#FFFFFF" stroke="#E2E8F0"/>
  <rect x="38" y="38" width="220" height="14" rx="4" fill="#0F172A"/>
  <rect x="38" y="60" width="160" height="8" rx="3" fill="#64748B"/>
  <rect x="22" y="126" width="140" height="446" rx="10" fill="#FAFAFA"/>
  <rect x="176" y="126" width="222" height="446" rx="10" fill="#FFFFFF"/>
  <rect x="34" y="148" width="116" height="8" rx="3" fill="#94A3B8"/>
  <rect x="34" y="164" width="116" height="6" rx="3" fill="#CBD5E1"/>
  <rect x="34" y="196" width="116" height="8" rx="3" fill="#94A3B8"/>
  <rect x="34" y="212" width="96" height="6" rx="3" fill="#CBD5E1"/>
  <rect x="34" y="244" width="116" height="8" rx="3" fill="#94A3B8"/>
  <rect x="34" y="260" width="104" height="6" rx="3" fill="#CBD5E1"/>
  <rect x="188" y="148" width="198" height="10" rx="3" fill="#1E293B"/>
  <rect x="188" y="168" width="198" height="7" rx="3" fill="#CBD5E1"/>
  <rect x="188" y="182" width="176" height="7" rx="3" fill="#CBD5E1"/>
  <rect x="188" y="220" width="198" height="10" rx="3" fill="#1E293B"/>
  <rect x="188" y="240" width="160" height="7" rx="3" fill="#CBD5E1"/>
  <rect x="188" y="254" width="198" height="7" rx="3" fill="#CBD5E1"/>
</svg>
