<svg width="420" height="594" viewBox="0 0 420 594" fill="none" xmlns="http://www.w3.org/2000/svg">
  <rect width="420" height="594" rx="14" fill="#F8FAFC"/>
  <rect x="22" y="22" width="376" height="120" rx="10" fill="url(#g)"/>
  <rect x="34" y="36" width="220" height="16" rx="4" fill="#FFFFFF"/>
  <rect x="34" y="60" width="180" height="10" rx="3" fill="#E2E8F0"/>
  <rect x="34" y="88" width="150" height="8" rx="3" fill="#CBD5E1"/>
  <rect x="34" y="102" width="160" height="8" rx="3" fill="#CBD5E1"/>
  <rect x="22" y="160" width="220" height="412" rx="10" fill="#FFFFFF"/>
  <rect x="252" y="160" width="146" height="412" rx="10" fill="#F1F5F9"/>
  <rect x="38" y="178" width="188" height="10" rx="3" fill="#334155"/>
  <rect x="38" y="198" width="188" height="7" rx="3" fill="#CBD5E1"/>
  <rect x="38" y="212" width="172" height="7" rx="3" fill="#CBD5E1"/>
  <rect x="38" y="246" width="188" height="10" rx="3" fill="#334155"/>
  <rect x="38" y="266" width="150" height="7" rx="3" fill="#CBD5E1"/>
  <rect x="38" y="280" width="188" height="7" rx="3" fill="#CBD5E1"/>
  <rect x="268" y="180" width="114" height="9" rx="3" fill="#475569"/>
  <rect x="268" y="200" width="114" height="7" rx="3" fill="#94A3B8"/>
  <rect x="268" y="230" width="114" height="9" rx="3" fill="#475569"/>
  <rect x="268" y="250" width="114" height="7" rx="3" fill="#94A3B8"/>
  <defs>
    <linearGradient id="g" x1="22" y1="22" x2="398" y2="142" gradientUnits="userSpaceOnUse">
      <stop stop-color="#0F172A"/>
      <stop offset="1" stop-color="#334155"/>
    </linearGradient>
  </defs>
</svg>
