<svg width="420" height="594" viewBox="0 0 420 594" fill="none" xmlns="http://www.w3.org/2000/svg">
  <rect width="420" height="594" rx="14" fill="#FFFFFF"/>
  <rect x="22" y="22" width="376" height="104" rx="10" fill="#111827"/>
  <rect x="38" y="38" width="200" height="14" rx="4" fill="#FFFFFF"/>
  <rect x="38" y="60" width="160" height="8" rx="3" fill="#D1D5DB"/>
  <rect x="22" y="142" width="182" height="136" rx="10" fill="#F9FAFB" stroke="#E5E7EB"/>
  <rect x="216" y="142" width="182" height="136" rx="10" fill="#F9FAFB" stroke="#E5E7EB"/>
  <rect x="22" y="290" width="182" height="136" rx="10" fill="#F9FAFB" stroke="#E5E7EB"/>
  <rect x="216" y="290" width="182" height="136" rx="10" fill="#F9FAFB" stroke="#E5E7EB"/>
  <rect x="22" y="438" width="182" height="136" rx="10" fill="#F9FAFB" stroke="#E5E7EB"/>
  <rect x="216" y="438" width="182" height="136" rx="10" fill="#F9FAFB" stroke="#E5E7EB"/>
  <rect x="36" y="156" width="150" height="8" rx="3" fill="#6B7280"/>
  <rect x="36" y="172" width="130" height="6" rx="3" fill="#D1D5DB"/>
  <rect x="230" y="156" width="150" height="8" rx="3" fill="#6B7280"/>
  <rect x="230" y="172" width="130" height="6" rx="3" fill="#D1D5DB"/>
  <rect x="36" y="304" width="150" height="8" rx="3" fill="#6B7280"/>
  <rect x="36" y="320" width="130" height="6" rx="3" fill="#D1D5DB"/>
  <rect x="230" y="304" width="150" height="8" rx="3" fill="#6B7280"/>
  <rect x="230" y="320" width="130" height="6" rx="3" fill="#D1D5DB"/>
</svg>
