<svg width="420" height="594" viewBox="0 0 420 594" fill="none" xmlns="http://www.w3.org/2000/svg">
  <rect width="420" height="594" rx="14" fill="#F8FAFC"/>
  <rect x="22" y="22" width="126" height="550" rx="10" fill="#1E3A8A"/>
  <rect x="166" y="38" width="232" height="18" rx="4" fill="#0F172A"/>
  <rect x="166" y="64" width="180" height="10" rx="3" fill="#64748B"/>
  <rect x="166" y="96" width="232" height="8" rx="3" fill="#CBD5E1"/>
  <rect x="166" y="112" width="210" height="8" rx="3" fill="#CBD5E1"/>
  <rect x="166" y="128" width="220" height="8" rx="3" fill="#CBD5E1"/>
  <rect x="166" y="168" width="232" height="12" rx="4" fill="#334155"/>
  <rect x="166" y="188" width="192" height="8" rx="3" fill="#CBD5E1"/>
  <rect x="166" y="204" width="232" height="8" rx="3" fill="#CBD5E1"/>
  <rect x="166" y="240" width="232" height="12" rx="4" fill="#334155"/>
  <rect x="166" y="260" width="170" height="8" rx="3" fill="#CBD5E1"/>
  <rect x="166" y="276" width="232" height="8" rx="3" fill="#CBD5E1"/>
  <circle cx="85" cy="78" r="28" fill="#93C5FD"/>
  <rect x="42" y="130" width="84" height="8" rx="3" fill="#BFDBFE"/>
  <rect x="42" y="146" width="96" height="6" rx="3" fill="#60A5FA"/>
  <rect x="42" y="178" width="96" height="7" rx="3" fill="#BFDBFE"/>
  <rect x="42" y="210" width="96" height="7" rx="3" fill="#BFDBFE"/>
  <rect x="42" y="242" width="96" height="7" rx="3" fill="#BFDBFE"/>
</svg>
