<?xml version="1.0" standalone="no"?>
<!DOCTYPE svg PUBLIC "-//W3C//DTD SVG 20010904//EN"
 "http://www.w3.org/TR/2001/REC-SVG-20010904/DTD/svg10.dtd">
<svg version="1.0" xmlns="http://www.w3.org/2000/svg"
 width="408.000000pt" height="612.000000pt" viewBox="0 0 408.000000 612.000000"
 preserveAspectRatio="xMidYMid meet">

<g transform="translate(0.000000,612.000000) scale(0.100000,-0.100000)"
fill="#000000" stroke="none">
<path d="M554 3776 l-34 -34 0 -567 0 -567 34 -34 34 -34 459 0 c408 0 461 2
482 16 49 35 51 51 51 520 l0 436 -132 137 c-72 75 -138 142 -147 149 -11 9
-99 12 -364 12 l-349 0 -34 -34z m640 -22 l46 -7 1 -81 c0 -102 15 -144 58
-173 29 -20 47 -23 127 -23 l94 0 0 -424 c0 -382 -2 -425 -17 -437 -24 -21
-892 -21 -916 0 -15 12 -17 64 -17 560 0 566 0 570 40 584 21 8 528 8 584 1z
m206 -129 l95 -95 -82 0 c-107 0 -113 6 -113 111 0 43 1 79 3 79 1 0 45 -43
97 -95z"/>
<path d="M876 3519 c-38 -45 -35 -92 8 -135 29 -29 40 -34 67 -29 48 9 69 23
84 59 18 41 4 98 -28 121 -12 8 -40 15 -63 15 -35 0 -47 -5 -68 -31z"/>
<path d="M880 3314 c-38 -17 -67 -40 -81 -66 -7 -14 -1 -22 34 -42 82 -48 171
-44 245 11 l33 25 -23 25 c-52 57 -140 77 -208 47z"/>
<path d="M736 3064 c-12 -12 -13 -20 -6 -35 10 -18 24 -19 295 -19 156 0 290
3 299 6 9 3 16 16 16 29 0 13 -7 26 -16 29 -9 3 -141 6 -294 6 -240 0 -281 -2
-294 -16z"/>
<path d="M730 2891 c-7 -15 -6 -23 6 -35 22 -23 380 -24 410 -2 15 12 17 18 8
33 -10 16 -31 18 -212 21 -191 2 -202 1 -212 -17z"/>
<path d="M726 2724 c-15 -38 10 -44 175 -44 149 0 158 1 164 20 3 11 3 24 0
30 -4 6 -70 10 -170 10 -141 0 -164 -2 -169 -16z"/>
<path d="M2293 3540 c-25 -10 -53 -58 -53 -92 0 -38 28 -67 95 -97 71 -32 88
-60 59 -92 -30 -33 -94 -15 -94 27 0 9 -11 14 -30 14 -33 0 -37 -13 -18 -55
22 -48 99 -69 162 -45 34 13 59 64 52 106 -9 46 -32 68 -98 94 -57 22 -74 42
-62 73 13 35 78 32 89 -4 4 -13 15 -19 36 -19 33 0 35 9 14 51 -24 45 -93 63
-152 39z"/>
<path d="M1730 3365 l0 -175 30 0 30 0 0 70 c0 64 2 70 21 70 15 0 28 -16 51
-66 32 -68 42 -78 76 -72 19 3 18 7 -14 71 l-34 68 26 23 c20 17 28 34 32 74
4 47 2 54 -26 82 -29 28 -35 30 -111 30 l-81 0 0 -175z m152 100 c8 -18 9 -35
2 -53 -8 -23 -16 -27 -52 -30 l-42 -3 0 55 0 56 40 0 c34 0 42 -4 52 -25z"/>
<path d="M2010 3365 l0 -175 95 0 95 0 0 30 0 30 -65 0 -65 0 0 45 0 45 60 0
c57 0 60 1 60 25 0 27 -3 29 -72 25 l-48 -2 0 51 0 51 65 0 c63 0 65 1 65 25
0 25 0 25 -95 25 l-95 0 0 -175z"/>
<path d="M2520 3396 c0 -139 1 -146 24 -173 22 -25 30 -28 91 -28 61 0 69 3
91 28 23 27 24 34 24 173 l0 145 -27 -3 -28 -3 -5 -138 c-5 -145 -9 -157 -55
-157 -46 0 -50 12 -55 157 l-5 138 -27 3 -28 3 0 -145z"/>
<path d="M2820 3365 l0 -175 25 0 25 0 0 125 c0 120 11 161 25 93 4 -18 13
-55 21 -83 8 -27 19 -69 25 -93 9 -39 13 -43 37 -40 30 3 30 5 74 173 l23 90
5 -130 5 -130 28 -3 27 -3 0 176 0 176 -47 -3 -48 -3 -30 -112 c-16 -62 -33
-115 -36 -118 -4 -3 -12 18 -19 47 -6 29 -21 83 -31 121 l-20 67 -44 0 -45 0
0 -175z"/>
<path d="M3205 3508 c-3 -18 -5 -96 -3 -173 l3 -140 95 0 95 0 3 27 c3 27 3
27 -65 30 l-68 3 -1 43 -1 42 58 0 c56 0 59 1 59 25 0 22 -4 24 -57 27 l-58 3
0 45 0 45 63 3 c58 3 62 4 62 27 0 25 -1 25 -90 25 l-89 0 -6 -32z"/>
<path d="M1776 3039 c-43 -34 -56 -70 -56 -159 0 -96 18 -143 63 -166 61 -32
124 -16 157 39 29 46 26 67 -8 67 -22 0 -30 -7 -39 -30 -13 -34 -33 -45 -66
-36 -33 8 -47 46 -47 130 0 59 4 78 21 100 29 37 69 32 89 -11 12 -25 21 -33
43 -33 31 0 35 16 12 60 -30 58 -119 79 -169 39z"/>
<path d="M3065 3029 c-43 -38 -59 -92 -52 -176 10 -107 49 -153 132 -153 38 0
52 6 82 34 36 33 37 35 41 122 5 107 -10 153 -60 184 -50 30 -100 26 -143 -11z
m124 -45 c17 -22 21 -41 21 -108 0 -69 -3 -86 -20 -104 -45 -48 -104 -16 -115
62 -20 132 53 227 114 150z"/>
<path d="M2010 2876 l0 -176 30 0 30 0 0 70 c0 63 2 70 20 70 14 0 29 -19 55
-70 32 -63 38 -70 65 -70 17 0 30 2 30 5 0 2 -14 34 -32 69 l-31 64 26 32 c36
43 37 107 3 147 -23 26 -31 28 -110 32 l-86 3 0 -176z m146 113 c8 -6 14 -26
14 -44 0 -39 -16 -54 -64 -62 l-36 -6 0 68 0 68 36 -6 c20 -3 42 -11 50 -18z"/>
<path d="M2290 2875 l0 -176 93 3 92 3 3 28 3 27 -65 0 -66 0 0 45 0 45 60 0
60 0 0 30 0 30 -60 0 -60 0 0 45 0 45 65 0 c63 0 65 1 65 25 0 25 0 25 -95 25
l-95 0 0 -175z"/>
<path d="M2601 3018 c-5 -18 -22 -78 -37 -133 -14 -55 -33 -119 -40 -143 l-13
-43 32 3 c28 3 33 8 41 41 9 37 10 37 61 37 52 0 52 0 64 -40 10 -35 16 -40
41 -40 32 0 34 -14 -16 165 -53 187 -52 185 -89 185 -29 0 -35 -4 -44 -32z
m67 -116 c16 -72 16 -72 -17 -72 -38 0 -45 12 -33 53 6 17 13 45 17 61 8 37
19 24 33 -42z"/>
<path d="M2762 3028 c2 -19 10 -24 46 -26 l42 -3 0 -150 0 -150 28 3 27 3 3
148 3 147 39 0 c36 0 40 3 40 25 l0 25 -116 0 c-114 0 -115 0 -112 -22z"/>
<path d="M3328 2889 c-2 -90 -1 -170 1 -176 2 -7 14 -13 27 -13 22 0 23 4 26
68 3 61 5 67 25 70 19 3 27 -7 54 -67 29 -64 34 -71 60 -71 16 0 29 5 29 10 0
6 -14 38 -31 71 l-30 61 25 23 c30 28 40 63 32 109 -11 56 -37 71 -132 75
l-83 3 -3 -163z m125 112 c29 -11 41 -38 32 -74 -10 -40 -86 -64 -99 -31 -8
21 -8 99 1 107 9 10 37 9 66 -2z"/>
</g>
</svg>
